<svg width="263.715" height="101.15" xmlns="http://www.w3.org/2000/svg">
 <g>
  <title>Layer 1</title>
  <g id="svg_1">
   <g id="svg_2">
    <path class="a" d="m105.68399,49.161l-8.06,-10.163l0,17.873l-11.097,0l0,-35.862l10.514,0l8.761,12.207l8.82,-12.207l10.514,0l0,35.863l-11.1,0l0,-17.873l-8.118,10.162l-0.234,0z" fill="#000" id="svg_3" stroke="#fff"/>
    <path class="a" d="m151.29801,21.009l13.551,35.863l-11.448,0l-1.869,-5.2l-12.617,0l-1.869,5.2l-11.1,0l13.55,-35.863l11.802,0zm-9.055,21.494l5.958,0l-2.979,-8.236l-2.979,8.236z" fill="#000" id="svg_4" stroke="#fff"/>
    <path class="a" d="m176.99399,36.02l9.638,-15.011l12.966,0l-11.448,17.172l11.974,18.691l-13.141,0l-9.988,-15.829l0,15.829l-11.332,0l0,-35.863l11.331,0l0,15.011z" fill="#000" id="svg_5" stroke="#fff"/>
    <path class="a" d="m227.92502,21.009l0,9.637l-15.829,0l0,3.387l14.485,0l0,9.345l-14.485,0l0,3.8l15.829,0l0,9.7l-26.985,0l0,-35.869l26.985,0z" fill="#000" id="svg_6" stroke="#fff"/>
    <path class="a" d="m242.629,46.591l0,10.28l-11.156,0l0,-35.862l17.464,0c7.885,0 13.493,4.789 13.493,13.083c0,5.081 -2.337,8.819 -6.133,10.806l7.418,11.974l-12.441,0l-6.016,-10.28l-2.629,-0.001zm0,-8.878l4.794,0c2.921,0 4.03,-1.46 4.03,-3.621c0,-2.22 -1.109,-3.68 -4.03,-3.68l-4.789,0l-0.005,7.301z" fill="#000" id="svg_7" stroke="#fff"/>
   </g>
   <g id="svg_8">
    <path class="a" d="m97.68199,90.75398l0,9.813l-11.155,0l0,-35.863l16.822,0c7.944,0 13.493,4.672 13.493,13.025s-5.548,13.025 -13.493,13.025l-5.667,0zm4.145,-16.647l-4.147,0l0,7.242l4.147,0c2.92,0 4.089,-1.4 4.089,-3.621s-1.166,-3.621 -4.089,-3.621z" fill="#000" id="svg_9" stroke="#fff"/>
    <path class="a" d="m129.75201,90.28598l0,10.28l-11.156,0l0,-35.862l17.464,0c7.885,0 13.493,4.789 13.493,13.083c0,5.081 -2.337,8.819 -6.133,10.805l7.418,11.974l-12.441,0l-6.016,-10.28l-2.629,0zm0,-8.878l4.792,0c2.921,0 4.03,-1.46 4.03,-3.621c0,-2.22 -1.109,-3.68 -4.03,-3.68l-4.789,0l-0.003,7.301z" fill="#000" id="svg_10" stroke="#fff"/>
    <path class="a" d="m169.06499,101.15002c-10.747,0 -18.048,-7.827 -18.048,-18.516c0,-10.747 7.3,-18.516 18.048,-18.516s18.107,7.769 18.107,18.516c0,10.69 -7.362,18.516 -18.107,18.516zm0,-27.16c-3.971,0 -6.658,3.271 -6.658,8.644s2.687,8.644 6.658,8.644s6.717,-3.27 6.717,-8.644s-2.745,-8.644 -6.717,-8.644z" fill="#000" id="svg_11" stroke="#fff"/>
   </g>
  </g>
  <g id="svg_12">
   <g id="svg_13">
    <path class="b" d="m12.035,61.61698l0.558,1.864l1.894,-0.575l-0.224,0.388l0.951,0l-0.354,0.544l0.727,0l-0.914,0.447l0.914,0.149l-2.484,0.746l0.638,2.128l2,-0.655l-0.3,0.652l0.354,0.093l-0.242,0.41l0.634,0l-0.429,0.373l0.6,0.3l-2.064,0.652l0.33,1.1a3.508,3.508 0 0 1 1.446,1.132l18.571,-5.509q0.055,-0.445 0.114,-0.9c0.542,-4.183 1.255,-8.146 1.752,-10.709l-24.472,7.37z" fill="#00ccc1" id="svg_14"/>
   </g>
   <g id="svg_15">
    <path class="c" d="m10.331,70.38203l-1.056,-1.593l1.2,3.65a0.573,0.573 0 0 0 0.711,0.372l0.5,-0.149a4.675,4.675 0 0 1 0.506,-1.814l-0.3,-0.961l-1.561,0.495z" fill="#85ccc8" id="svg_16"/>
   </g>
   <g id="svg_17">
    <path class="c" d="m10.674,65.91002l-1.667,0.5l-0.969,-1.547l2.116,-0.642l-0.574,-1.865l-0.954,0.287a1.3,1.3 0 0 0 -0.833,1.643l1.478,4.491l2.076,-0.682l-0.673,-2.185z" fill="#85ccc8" id="svg_18"/>
   </g>
   <g id="svg_19">
    <path class="b" d="m48.061,94.43l-11.52,0a0.5,0.5 0 0 0 -0.5,0.5l0,2.646a0.5,0.5 0 0 0 0.5,0.5l11.52,0a0.5,0.5 0 0 0 0.5,-0.5l0,-2.646a0.5,0.5 0 0 0 -0.5,-0.5z" fill="#00ccc1" id="svg_20"/>
   </g>
   <g id="svg_21">
    <path class="b" d="m77.52601,81.37502c-1.112,-2.345 -10.658,-22.475 -12.524,-26.385c0.709,4.2 1.773,10.887 2.336,16.24c0.884,8.4 -0.113,10.721 -0.322,11.1a1.081,1.081 0 0 1 -0.113,0.165c0,0.049 0.008,0.1 0.012,0.155l2.014,3.151a1.383,1.383 0 0 0 1.794,0.491l6.187,-3.124a1.351,1.351 0 0 0 0.616,-1.793z" fill="#00ccc1" id="svg_22"/>
   </g>
   <g id="svg_23">
    <path class="b" d="m66.06901,94.43l-11.52,0a0.5,0.5 0 0 0 -0.5,0.5l0,2.646a0.5,0.5 0 0 0 0.5,0.5l11.52,0a0.5,0.5 0 0 0 0.5,-0.5l0,-2.646a0.5,0.5 0 0 0 -0.5,-0.5z" fill="#00ccc1" id="svg_24"/>
   </g>
   <g id="svg_25">
    <path class="b" d="m54.046,92.39201a2.59,2.59 0 0 1 0.5,-0.05l10.36,0a81.77,81.77 0 0 0 -0.045,-9.1a66.666,66.666 0 0 1 -15.294,1.437l0,0c-4.862,0 -9.248,-0.3 -11.58,-0.5l0,8.157l10.073,0a2.59,2.59 0 0 1 0.5,0.05l0,-3.555a1.791,1.791 0 0 1 1.789,-1.789l1.9,0a1.791,1.791 0 0 1 1.789,1.789l0.008,3.561z" fill="#00ccc1" id="svg_26"/>
   </g>
   <g id="svg_27">
    <path class="b" d="m36.81899,65.235q-0.1,0.792 -0.19,1.538l0,0.008c-1.15,9.814 -0.384,13.691 0.35,15.217c1.62,0.155 6.755,0.6 12.591,0.6l0,0c6.606,0 11.888,-0.544 15.713,-1.617c0.217,-0.894 0.612,-3.516 -0.021,-9.531c-0.744,-7.069 -2.374,-16.5 -2.873,-19.326c-1.453,-0.043 -4.651,-0.122 -8.5,-0.122c-5.876,0 -10.876,0.175 -14.88,0.521a1.041,1.041 0 0 1 -0.2,0.82c-0.47,2.325 -1.351,6.955 -1.99,11.892z" fill="#00ccc1" id="svg_28"/>
   </g>
   <g id="svg_29">
    <path class="c" d="m76.58999,33.23201l0.222,-4.214l-1.49,-0.128c0.062,1.347 0.1,2.838 0.1,4.431l1.168,-0.089z" fill="#85ccc8" id="svg_30"/>
   </g>
   <g id="svg_31">
    <path class="b" d="m71.874,47.95601a67.94,67.94 0 0 0 1.432,-13.215a1.035,1.035 0 0 1 0.009,-0.606c0.024,-2.263 -0.042,-4.342 -0.141,-6.116a1.031,1.031 0 0 1 -0.034,-0.364c0,-0.023 0.006,-0.044 0.009,-0.066c-0.14,-2.307 -0.331,-4.047 -0.44,-4.924a51.153,51.153 0 0 0 -15.267,-2.04c-14.8,0 -30,4.411 -33.393,5.454c-0.394,14.666 1.529,21.65 2.22,23.657l45.605,-1.78zm-12.782,-24.49a8.128,8.128 0 1 1 -8.128,8.128a8.128,8.128 0 0 1 8.128,-8.128zm-19.747,1.457a8.128,8.128 0 1 1 -8.128,8.128a8.128,8.128 0 0 1 8.128,-8.127l0,-0.001z" fill="#00ccc1" id="svg_32"/>
   </g>
   <g id="svg_33">
    <path class="b" d="m22.055,36.068q-0.11,-2.137 -0.141,-4.627l-1.482,0.286l0.208,4.342l1.415,-0.001z" fill="#00ccc1" id="svg_34"/>
   </g>
  </g>
  <g id="svg_35">
   <circle class="d" cx="44.277" cy="3.731" r="1.64" fill="#f2513a" id="svg_36"/>
  </g>
  <g id="svg_37">
   <path class="e" d="m13.105,65.18099l-2.429,0.729l0.673,2.185l2.394,-0.787l-0.638,-2.127z" fill="gray" id="svg_38"/>
  </g>
  <g id="svg_39">
   <g id="svg_40">
    <circle class="a" cx="57.011" cy="30.656" r="2.974" fill="#fff" transform="rotate(-22.5 54.037 27.682)" id="svg_41"/>
   </g>
   <g id="svg_42">
    <circle class="a" cx="7.4633" cy="69.20689" r="1.506" transform="matrix(0.526 -0.851 0.851 0.526 0 2.562)" fill="#fff" id="svg_43"/>
   </g>
   <g id="svg_44">
    <circle class="a" cx="37.967" cy="30.667" r="2.974" fill="#fff" id="svg_45"/>
   </g>
   <g id="svg_46">
    <circle class="a" cx="42.864" cy="33.989" r="1.506" fill="#fff" id="svg_47"/>
   </g>
  </g>
  <g id="svg_48">
   <g id="svg_49">
    <path d="m79.425,80.478c-1.145,-2.414 -11.224,-23.668 -12.671,-26.693a8.02,8.02 0 0 0 -2.516,-3.443l7.778,-0.3a2.029,2.029 0 0 0 1.9,-1.591a69.338,69.338 0 0 0 1.49,-13.033l2.271,-0.172a1.044,1.044 0 0 0 0.964,-0.986l0.323,-6.139a1.044,1.044 0 0 0 -0.953,-1.1l-2.8,-0.24c-0.2,-2.952 -0.48,-4.857 -0.511,-5.062a1.044,1.044 0 0 0 -0.7,-0.835a52.227,52.227 0 0 0 -16.55,-2.35a91.606,91.606 0 0 0 -9.576,0.535l-1.6,-12.184a3.727,3.727 0 1 0 -2.031,0.572l1.561,11.852a137.455,137.455 0 0 0 -23.092,5a1.044,1.044 0 0 0 -0.716,0.958q-0.067,2.122 -0.075,4.043l-2.759,0.533a1.044,1.044 0 0 0 -0.845,1.075l0.3,6.239a1.044,1.044 0 0 0 1.043,0.994l2.539,0c0.672,9.241 2.336,12.893 2.433,13.1a1.044,1.044 0 0 0 0.944,0.6l0.043,0l11.476,-0.447c-0.02,0.092 -0.058,0.268 -0.11,0.52l-25.537,7.687l0.6,2l24.466,-7.372c-0.5,2.562 -1.209,6.526 -1.752,10.709q-0.059,0.456 -0.114,0.9l-18.571,5.509a2.507,2.507 0 0 1 0.342,2.076l17.973,-5.332c-0.835,8.013 -0.477,13.083 1.085,15.45a1.044,1.044 0 0 0 0.436,0.373l0,8.493a2.594,2.594 0 0 0 -1.951,2.508l0,2.646a2.594,2.594 0 0 0 2.591,2.591l11.521,0a2.594,2.594 0 0 0 2.591,-2.591l0,-2.64a2.577,2.577 0 0 0 -0.017,-0.286a1.051,1.051 0 0 0 0.017,-0.181l0,-5.331l1.3,0l0,5.331a1.051,1.051 0 0 0 0.017,0.181a2.577,2.577 0 0 0 -0.017,0.286l0,2.646a2.594,2.594 0 0 0 2.591,2.591l11.521,0a2.594,2.594 0 0 0 2.591,-2.591l0,-2.646a2.593,2.593 0 0 0 -1.669,-2.419c0.1,-2.215 0.123,-4.133 0.1,-5.709l0.077,0.121a3.465,3.465 0 0 0 4.494,1.23l6.187,-3.124a3.427,3.427 0 0 0 1.568,-4.552zm-14.13,0.5c-3.825,1.073 -9.107,1.617 -15.713,1.617l0,0c-5.836,0 -10.971,-0.442 -12.591,-0.6c-0.734,-1.526 -1.5,-5.4 -0.35,-15.217l0,-0.008q0.088,-0.746 0.19,-1.538c0.64,-4.938 1.52,-9.567 1.99,-11.894a1.042,1.042 0 0 0 0.2,-0.82c4,-0.346 9,-0.521 14.88,-0.521c3.852,0 7.051,0.079 8.5,0.122c0.5,2.821 2.129,12.257 2.873,19.326c0.634,6.016 0.239,8.638 0.021,9.532l0,0.001zm11.529,-51.961l-0.222,4.214l-1.169,0.089c0,-1.593 -0.037,-3.084 -0.1,-4.431l1.491,0.128zm-34.175,-25.288a1.64,1.64 0 1 1 1.64,1.641a1.642,1.642 0 0 1 -1.639,-1.642l-0.001,0.001zm-22,32.337l-0.208,-4.341l1.482,-0.286q0.028,2.492 0.14,4.627l-1.414,0zm5.627,13.667c-0.691,-2.007 -2.614,-8.992 -2.22,-23.657c3.388,-1.043 18.6,-5.454 33.393,-5.454a51.166,51.166 0 0 1 15.268,2.04c0.108,0.878 0.3,2.618 0.439,4.925c0,0.022 -0.007,0.044 -0.009,0.066a1.046,1.046 0 0 0 0.034,0.365c0.1,1.773 0.165,3.853 0.141,6.116a1.044,1.044 0 0 0 -0.047,0.4a1.056,1.056 0 0 0 0.038,0.21a67.918,67.918 0 0 1 -1.432,13.215l-45.605,1.774zm22.3,47.844a0.5,0.5 0 0 1 -0.5,0.5l-11.523,0a0.5,0.5 0 0 1 -0.5,-0.5l0,-2.646a0.5,0.5 0 0 1 0.5,-0.5l11.521,0a0.5,0.5 0 0 1 0.5,0.5l0.002,2.646zm1.789,-10.532a1.791,1.791 0 0 0 -1.789,1.789l0,3.555a2.611,2.611 0 0 0 -0.5,-0.05l-10.075,0l0,-8.157c2.332,0.2 6.718,0.5 11.58,0.5l0,0a66.645,66.645 0 0 0 15.294,-1.438a81.761,81.761 0 0 1 0.046,9.1l-10.36,0a2.611,2.611 0 0 0 -0.5,0.05l0,-3.555a1.791,1.791 0 0 0 -1.789,-1.789l-1.907,-0.005zm16.219,10.532a0.5,0.5 0 0 1 -0.5,0.5l-11.522,0a0.5,0.5 0 0 1 -0.5,-0.5l0,-2.646a0.5,0.5 0 0 1 0.5,-0.5l11.521,0a0.5,0.5 0 0 1 0.5,0.5l0.001,2.646zm10.335,-14.41l-6.187,3.124a1.383,1.383 0 0 1 -1.793,-0.491l-2.014,-3.151c0,-0.054 -0.008,-0.107 -0.013,-0.155a1.046,1.046 0 0 0 0.113,-0.165c0.209,-0.38 1.207,-2.7 0.322,-11.1c-0.563,-5.353 -1.627,-12.036 -2.336,-16.24c1.866,3.909 11.412,24.04 12.524,26.385a1.351,1.351 0 0 1 -0.616,1.793z" id="svg_50"/>
   </g>
   <g id="svg_51">
    <path d="m11.701,72.66l-0.5,0.149a0.574,0.574 0 0 1 -0.712,-0.373l-1.2,-3.649l1.056,1.593l1.568,-0.5l2.39,-0.755l2.064,-0.652l-0.6,-0.3l0.429,-0.373l-0.634,0l0.242,-0.41l-0.354,-0.093l0.3,-0.652l-2,0.655l-2.394,0.787l-2.076,0.682l-1.478,-4.491a1.3,1.3 0 0 1 0.833,-1.643l0.954,-0.287l-0.614,-2l-0.951,0.286l-0.016,0a3.388,3.388 0 0 0 -2.189,4.287l2.683,8.152a2.65,2.65 0 0 0 2.52,1.834a2.7,2.7 0 0 0 0.769,-0.112l0.662,-0.2a2.39,2.39 0 0 1 -0.752,-1.935zm-1.283,-2.492l-0.859,-1.3l5.857,-1.924l-0.128,0.28l-0.088,0.193l0.206,0.054l0.125,0.033l-0.122,0.206l-0.16,0.27l0.469,0l-0.068,0.059l-0.2,0.176l0.239,0.12l0.2,0.1" id="svg_52"/>
   </g>
   <g id="svg_53">
    <path d="m59.105,23.46399a8.128,8.128 0 1 0 8.128,8.128a8.128,8.128 0 0 0 -8.128,-8.128zm-1.169,8.8a2.974,2.974 0 1 1 2.974,-2.974a2.974,2.974 0 0 1 -2.974,2.973l0,0.001zm4.9,1.854a1.506,1.506 0 1 1 1.506,-1.506a1.506,1.506 0 0 1 -1.509,1.505l0.003,0.001z" id="svg_54"/>
   </g>
   <g id="svg_55">
    <path d="m39.35801,24.922a8.128,8.128 0 1 0 8.128,8.128a8.128,8.128 0 0 0 -8.128,-8.128zm-1.377,8.717a2.974,2.974 0 1 1 2.974,-2.974a2.974,2.974 0 0 1 -2.975,2.974l0.001,0zm4.9,1.854a1.506,1.506 0 1 1 1.506,-1.506a1.506,1.506 0 0 1 -1.51,1.506l0.004,0z" id="svg_56"/>
   </g>
  </g>
  <g id="svg_57">
   <path class="f" d="m7.448,61.062l0,0l-0.767,-2.229a0.144,0.144 0 0 0 -0.123,-0.1a6.57,6.57 0 0 1 -4.321,-10.9l0.254,-0.3a0.146,0.146 0 0 1 0.25,0.045l1.97,5.554a0.146,0.146 0 0 0 0.186,0.089l4.673,-1.612a0.146,0.146 0 0 0 0.09,-0.187l-1.969,-5.547a0.146,0.146 0 0 1 0.168,-0.192l0.378,0.081a6.566,6.566 0 0 1 5.084,4.315a6.684,6.684 0 0 1 -1.761,6.927a0.144,0.144 0 0 0 -0.037,0.151l0.77,2.23l4.507,13.054l0.768,2.226a0.144,0.144 0 0 0 0.128,0.1a6.456,6.456 0 0 1 5.657,4.37a6.556,6.556 0 0 1 -1.3,6.459l-0.254,0.3a0.146,0.146 0 0 1 -0.25,-0.045l-1.975,-5.55a0.146,0.146 0 0 0 -0.185,-0.089l-4.67,1.612a0.146,0.146 0 0 0 -0.09,0.187l1.974,5.566a0.146,0.146 0 0 1 -0.157,0.194l-0.5,-0.067a6.579,6.579 0 0 1 -3.224,-11.278a0.144,0.144 0 0 0 0.039,-0.157l-0.8,-2.154l0,0l-4.51,-13.054l-0.003,0.001z" fill="#00736c" fill-rule="evenodd" id="svg_58"/>
   <path class="g" d="m16.463,88.35401l-0.1,-0.007l-0.532,-0.071a7.165,7.165 0 0 1 -3.722,-12.072l-0.7,-1.882l-5.192,-15.035a7.152,7.152 0 0 1 -4.42,-11.829l0.244,-0.292a0.729,0.729 0 0 1 1.246,0.223l1.826,5.148l3.848,-1.327l-1.822,-5.133a0.729,0.729 0 0 1 0.837,-0.957l0.363,0.077a7.176,7.176 0 0 1 5.525,4.685a7.313,7.313 0 0 1 -1.7,7.352l5.861,16.979a7.094,7.094 0 0 1 4.462,11.771l-0.245,0.292a0.729,0.729 0 0 1 -1.244,-0.225l-1.83,-5.147l-3.846,1.328l1.827,5.152a0.728,0.728 0 0 1 -0.686,0.972l0,-0.002zm-14.015,-39.857a5.987,5.987 0 0 0 4.166,9.66a0.73,0.73 0 0 1 0.617,0.486l0.767,2.228l4.509,13.053l0.794,2.142a0.722,0.722 0 0 1 -0.2,0.793a6,6 0 0 0 2.7,10.222l-1.724,-4.877a0.727,0.727 0 0 1 0.449,-0.932l4.67,-1.613a0.744,0.744 0 0 1 0.924,0.444l1.718,4.832a5.974,5.974 0 0 0 0.964,-5.611a5.9,5.9 0 0 0 -5.14,-3.979a0.724,0.724 0 0 1 -0.645,-0.488l-6.044,-17.507a0.73,0.73 0 0 1 0.185,-0.762a6.13,6.13 0 0 0 1.613,-6.317a6.046,6.046 0 0 0 -4.278,-3.867l1.712,4.823a0.728,0.728 0 0 1 -0.45,0.933l-4.672,1.612a0.742,0.742 0 0 1 -0.924,-0.446l-1.711,-4.829z" fill="#020202" id="svg_59"/>
  </g>
  <g id="svg_60">
   <path class="a" d="m15.322,61.74297l-8.237,2.34l1.115,0.566l-0.617,1.106l1.078,0.6l-0.545,0.977l8.137,-2.31l-0.954,-0.532l0.587,-1.053l-1.02,-0.569l0.456,-1.125z" fill="#fff" id="svg_61"/>
   <path d="m7.519,67.80497l0.746,-1.337l-1.078,-0.6l0.611,-1.1l-1.508,-0.766l9.525,-2.7l-0.583,1.439l1.05,0.585l-0.587,1.053l1.314,0.733l-9.49,2.693zm0.46,-2.163l1.078,0.6l-0.344,0.618l6.784,-1.926l-0.595,-0.332l0.587,-1.053l-0.99,-0.552l0.329,-0.812l-6.95,1.976l0.722,0.367l-0.621,1.114z" id="svg_62"/>
  </g>
  <g id="svg_63">
   <path class="a" d="m16.494,66.10097l-8.237,2.338l1.115,0.566l-0.617,1.106l1.078,0.6l-0.545,0.977l8.137,-2.31l-0.954,-0.532l0.587,-1.053l-1.02,-0.569l0.456,-1.123z" fill="#fff" id="svg_64"/>
   <path d="m8.692,72.16298l0.746,-1.337l-1.078,-0.6l0.611,-1.1l-1.508,-0.766l9.525,-2.7l-0.583,1.439l1.049,0.586l-0.587,1.052l1.314,0.733l-9.489,2.693zm0.46,-2.163l1.078,0.6l-0.345,0.617l6.784,-1.926l-0.595,-0.332l0.587,-1.052l-0.99,-0.552l0.329,-0.812l-6.949,1.972l0.722,0.367l-0.621,1.118z" id="svg_65"/>
  </g>
 </g>

</svg>